<svg xmlns="http://www.w3.org/2000/svg" height="48" viewBox="0 -960 960 960" width="48"><path d="M234.391-399h323.457v-60H234.391v60Zm0-135.848h491.218v-60H234.391v60Zm0-134.848h491.218v-60H234.391v60ZM62.804-59.239v-764.978q0-30.845 23.28-54.194 23.279-23.35 54.025-23.35h679.782q30.845 0 54.194 23.35 23.35 23.349 23.35 54.194v518.5q0 30.745-23.35 54.025-23.349 23.279-54.194 23.279H231.978L62.804-59.239Zm139.609-246.478h617.478v-518.5H140.109v586.804l62.304-68.304Zm-62.304 0v-518.5 518.5Z"/></svg>