<svg xmlns="http://www.w3.org/2000/svg" height="48" viewBox="0 -960 960 960" width="48"><path d="M717.103-92.891H260.891V-632.74l283.783-294.543 50.793 41.627q7.288 5.512 10.802 16.415 3.513 10.904 3.513 26.191v8.81l-45.282 201.5h288.717q30.683 0 54.113 23.335 23.431 23.335 23.431 53.969v73.691q0 7.743 1.38 16.265 1.381 8.522-2.38 15.283L800.114-150.211q-10.932 24.456-34.14 40.888-23.209 16.432-48.871 16.432Zm-381.538-77.305h390.413l127-303v-82.239h-382.63l53.891-242.956-188.674 200.196v427.999Zm0-427.999v427.999-427.999Zm-74.674-34.544v77.304H136.196v385.239h124.695v77.305h-202V-632.74h202Z"/></svg>